# xmcd CD database file
#
# Track frame offsets:
#	150
#	9825
#	23220
#	35037
#	49728
#	59928
#	71681
#	81851
#	94342
#	107655
#	117875
#	127762
#	138199
#	152906
#	167029
#	179932
#	190885
#	203035
#	222583
#	234437
#	251986
#	265933
#
# Disc length: 3686 seconds
#
# Revision: 0
# Processed by: cddbd v1.5.2PL0 Copyright (c) Steve Scherf et al.
# Submitted via: CDex 1.70beta2
#
DISCID=480e6416
DTITLE=TIS - This Is Country - D1
DYEAR=1900
DGENRE=Country
TTITLE0=Lynn Anderson - Snowbird
TTITLE1=Johnny Paqycheck - Slide Off Your Satin Sheets
TTITLE2=Billie Jo Spears - Ease the Want I Me
TTITLE3=Porter Wagoner - Green, Green Grass of Home
TTITLE4=Dolly Parton - Release Me
TTITLE5=Willie Nelson - I'll Stay Arround
TTITLE6=Patsy Cline - Walking Dream
TTITLE7=Merle Haggard - Workin' Man Blues
TTITLE8=Janie Fricke - He's A Heartache
TTITLE9=Willie Nelson - Healing Hands of Time
TTITLE10=Lynn Anderson - What A Man My Man Is
TTITLE11=Waylon Jennings - Loreena
TTITLE12=Holly Dunn - Love Someone Like Me
TTITLE13=Johnny Paycheck - I'm the Only Hell (Mama Ever Raised)
TTITLE14=Billie Jo Spears - He's On the Run Again
TTITLE15=Faron Young - Wine Me Up
TTITLE16=Dolly Parton - Makin' Believe
TTITLE17=T.G. Sheppard - One For the Money
TTITLE18=Patsy Cline - Walkin' After Midnight
TTITLE19=Doug Stone - Too Bussy Being In Love
TTITLE20=Lynn anderson - Cry
TTITLE21=Porter Wagoner - Sorrow On the Rocks
EXTD=
EXTT0=
EXTT1=
EXTT2=
EXTT3=
EXTT4=
EXTT5=
EXTT6=
EXTT7=
EXTT8=
EXTT9=
EXTT10=
EXTT11=
EXTT12=
EXTT13=
EXTT14=
EXTT15=
EXTT16=
EXTT17=
EXTT18=
EXTT19=
EXTT20=
EXTT21=
PLAYORDER=
